<svg width="17" height="14" viewBox="0 0 17 14" fill="none" xmlns="http://www.w3.org/2000/svg">
<path d="M5.69994 13.0225C11.7362 13.0225 15.0387 8.02026 15.0387 3.6837C15.0387 3.54308 15.0356 3.39933 15.0293 3.2587C15.6718 2.7941 16.2262 2.21863 16.6665 1.55933C16.0682 1.82553 15.4329 1.99938 14.7824 2.07495C15.4674 1.6644 15.9802 1.01944 16.2259 0.259639C15.5815 0.641499 14.8769 0.910869 14.1421 1.0562C13.6471 0.530168 12.9925 0.181872 12.2796 0.0651616C11.5668 -0.0515486 10.8353 0.0698279 10.1983 0.410525C9.56137 0.751223 9.05437 1.29226 8.75574 1.95C8.4571 2.60774 8.38346 3.34554 8.54619 4.04933C7.2415 3.98385 5.96513 3.64493 4.79983 3.05453C3.63452 2.46412 2.6063 1.63542 1.78182 0.622139C1.36277 1.34462 1.23454 2.19956 1.42319 3.01319C1.61184 3.82682 2.10321 4.53809 2.79744 5.00245C2.27626 4.9859 1.76649 4.84558 1.31025 4.59308V4.6337C1.30979 5.39189 1.5719 6.12685 2.05204 6.71364C2.53219 7.30043 3.20072 7.70284 3.944 7.85245C3.46121 7.98455 2.95449 8.00379 2.46307 7.9087C2.67281 8.56075 3.08089 9.13105 3.63035 9.54002C4.17982 9.94898 4.84325 10.1762 5.52807 10.19C4.36545 11.1032 2.92929 11.5985 1.45088 11.5962C1.1887 11.5958 0.92677 11.5797 0.666504 11.5481C2.16841 12.5116 3.91552 13.0234 5.69994 13.0225Z" fill="#232536"/>
</svg>
